<?xml version="1.0" encoding="iso-8859-1"?>
<!-- Generator: Adobe Illustrator 19.0.0, SVG Export Plug-In . SVG Version: 6.00 Build 0)  -->
<svg version="1.1" id="Capa_1" xmlns="http://www.w3.org/2000/svg" xmlns:xlink="http://www.w3.org/1999/xlink" x="0px" y="0px"
	 viewBox="0 0 512.001 512.001" style="enable-background:new 0 0 512.001 512.001;" xml:space="preserve">
<path style="fill:#F3C97F;" d="M471.448,222.259H40.552c-20.795,0-36.228-19.278-31.677-39.569l6.728-29.995
	C30.05,88.283,87.236,42.504,153.248,42.504h205.503c66.013,0,123.198,45.78,137.646,110.192l6.728,29.995
	C507.676,202.981,492.243,222.259,471.448,222.259z"/>
<g>
	<ellipse style="fill:#FFFFFF;" cx="165.72" cy="141.48" rx="33.31" ry="26.528"/>
	<ellipse style="fill:#FFFFFF;" cx="346.28" cy="141.48" rx="33.31" ry="26.528"/>
</g>
<g>
	<path style="fill:#495059;" d="M200.988,120.111c-4.142,0-7.5-3.358-7.5-7.5c0-4.607-3.749-8.356-8.356-8.356
		c-4.607,0-8.356,3.748-8.356,8.356c0,4.142-3.358,7.5-7.5,7.5s-7.5-3.358-7.5-7.5c0-12.878,10.477-23.356,23.356-23.356
		s23.356,10.478,23.356,23.356C208.488,116.753,205.13,120.111,200.988,120.111z"/>
	<path style="fill:#495059;" d="M342.724,120.111c-4.143,0-7.5-3.358-7.5-7.5c0-4.607-3.748-8.356-8.355-8.356
		c-4.607,0-8.357,3.748-8.357,8.356c0,4.142-3.357,7.5-7.5,7.5s-7.5-3.358-7.5-7.5c0-12.878,10.478-23.356,23.357-23.356
		c12.878,0,23.355,10.478,23.355,23.356C350.224,116.753,346.866,120.111,342.724,120.111z"/>
	<path style="fill:#495059;" d="M256,146.306c-8.613,0-16.805-3.73-22.474-10.235c-2.721-3.123-2.396-7.86,0.727-10.582
		c3.124-2.721,7.86-2.397,10.582,0.726c2.819,3.235,6.889,5.09,11.165,5.09s8.346-1.855,11.165-5.09
		c2.722-3.122,7.457-3.447,10.582-0.726c3.122,2.722,3.448,7.459,0.727,10.582C272.805,142.576,264.613,146.306,256,146.306z"/>
</g>
<path style="opacity:0.15;fill:#C85412;enable-background:new    ;" d="M160.767,42.504h-7.519
	c-66.013,0-123.198,45.78-137.646,110.192L8.875,182.69c-4.551,20.291,10.882,39.569,31.677,39.569h153.531
	C131.088,177.438,149.126,81.552,160.767,42.504z"/>
<path style="fill:#F3C97F;" d="M483.492,469.496H28.508C12.763,469.496,0,456.733,0,440.989v-36.452
	c0-15.744,12.763-28.508,28.508-28.508h454.985c15.744,0,28.508,12.763,28.508,28.508v36.452
	C512,456.733,499.237,469.496,483.492,469.496z"/>
<path style="fill:#B37764;" d="M475.044,250.695H36.956c-17.356,0-31.426,14.07-31.426,31.426v18.776
	c0,17.356,14.07,31.426,31.426,31.426h438.089c17.356,0,31.426-14.07,31.426-31.426v-18.776
	C506.47,264.765,492.4,250.695,475.044,250.695z"/>
<path style="opacity:0.1;enable-background:new    ;" d="M36.956,250.695c-17.356,0-31.426,14.07-31.426,31.426v18.776
	c0,17.356,14.07,31.426,31.426,31.426h185.537c-33.533-14.58-32.178-57.078-23.46-81.628H36.956z"/>
<g style="opacity:0.1;">
	<circle cx="44.22" cy="293.93" r="7.569"/>
	<circle cx="155.3" cy="308.47" r="7.569"/>
	<circle cx="265.25" cy="300.5" r="7.569"/>
	<circle cx="377.03" cy="309.07" r="7.569"/>
	<circle cx="465.83" cy="293.93" r="7.569"/>
</g>
<path style="fill:#DA745E;" d="M297.967,376.029H55.718c-6.28,0-11.372-5.091-11.372-11.372v-20.963
	c0-6.28,5.091-11.372,11.372-11.372h242.25v43.707H297.967z"/>
<path style="fill:#EA5E57;" d="M282.646,376.029h173.636c6.281,0,11.372-5.091,11.372-11.372v-20.963
	c0-6.28-5.091-11.372-11.372-11.372H282.646c-6.281,0-11.372,5.091-11.372,11.372v20.963
	C271.274,370.938,276.366,376.029,282.646,376.029z"/>
<path style="fill:#8CD4A2;" d="M64.923,281.291L64.923,281.291c16.788,19.074,46.509,19.074,63.297,0l0,0
	c11.402-12.954,31.587-12.954,42.989,0l0,0c16.788,19.074,46.508,19.074,63.297,0l0,0c11.402-12.954,31.587-12.954,42.989,0l0,0
	c16.788,19.074,46.509,19.074,63.297,0l0,0c11.402-12.954,31.587-12.954,42.989,0l0,0c16.788,19.074,46.509,19.074,63.297,0l0,0
	c13.853-15.739,21.494-35.986,21.494-56.953v-2.079H43.429v2.079C43.429,245.304,51.071,265.552,64.923,281.291z"/>
<path style="opacity:0.1;enable-background:new    ;" d="M43.429,224.338c0,20.967,7.642,41.214,21.494,56.953l0,0
	c12.899,14.655,33.427,18.036,49.863,10.172c-8.206-9.895-14.064-24.65-16.884-37.036c-1.681-7.385,3.886-14.427,11.46-14.427
	h357.771c0.949-5.135,1.438-10.375,1.438-15.662v-2.079H43.429V224.338z"/>
<g>
	<path style="fill:#B37764;" d="M113.852,119.612c-4.142,0-7.5-3.358-7.5-7.5V99.048c0-4.142,3.358-7.5,7.5-7.5s7.5,3.358,7.5,7.5
		v13.064C121.352,116.254,117.995,119.612,113.852,119.612z"/>
	<path style="fill:#B37764;" d="M198.293,195.831c-4.142,0-7.5-3.358-7.5-7.5v-13.064c0-4.142,3.358-7.5,7.5-7.5s7.5,3.358,7.5,7.5
		v13.064C205.793,192.474,202.435,195.831,198.293,195.831z"/>
	<path style="fill:#B37764;" d="M77.061,181.125c-4.142,0-7.5-3.358-7.5-7.5v-13.064c0-4.142,3.358-7.5,7.5-7.5s7.5,3.358,7.5,7.5
		v13.064C84.561,177.767,81.204,181.125,77.061,181.125z"/>
	<path style="fill:#B37764;" d="M398.147,119.612c-4.143,0-7.5-3.358-7.5-7.5V99.048c0-4.142,3.357-7.5,7.5-7.5s7.5,3.358,7.5,7.5
		v13.064C405.647,116.254,402.29,119.612,398.147,119.612z"/>
	<path style="fill:#B37764;" d="M313.706,195.831c-4.143,0-7.5-3.358-7.5-7.5v-13.064c0-4.142,3.357-7.5,7.5-7.5s7.5,3.358,7.5,7.5
		v13.064C321.206,192.474,317.849,195.831,313.706,195.831z"/>
	<path style="fill:#B37764;" d="M434.939,181.125c-4.143,0-7.5-3.358-7.5-7.5v-13.064c0-4.142,3.357-7.5,7.5-7.5s7.5,3.358,7.5,7.5
		v13.064C442.439,177.767,439.081,181.125,434.939,181.125z"/>
</g>
<path style="opacity:0.15;fill:#C85412;enable-background:new    ;" d="M28.508,376.029C12.763,376.029,0,388.793,0,404.537v36.452
	c0,15.744,12.763,28.508,28.508,28.508h184.547c-42.887-23.275-46.65-66.148-40.107-93.467L28.508,376.029L28.508,376.029z"/>
<g>
</g>
<g>
</g>
<g>
</g>
<g>
</g>
<g>
</g>
<g>
</g>
<g>
</g>
<g>
</g>
<g>
</g>
<g>
</g>
<g>
</g>
<g>
</g>
<g>
</g>
<g>
</g>
<g>
</g>
</svg>
